<svg width="38" height="38" viewBox="0 0 38 38" fill="none" xmlns="http://www.w3.org/2000/svg">
<path d="M23.7806 18.2194C23.8504 18.289 23.9057 18.3717 23.9434 18.4628C23.9812 18.5538 24.0006 18.6514 24.0006 18.75C24.0006 18.8486 23.9812 18.9462 23.9434 19.0372C23.9057 19.1283 23.8504 19.211 23.7806 19.2806L16.2806 26.7806C16.1399 26.9214 15.949 27.0004 15.75 27.0004C15.551 27.0004 15.3601 26.9214 15.2194 26.7806C15.0787 26.6399 14.9996 26.449 14.9996 26.25C14.9996 26.051 15.0787 25.8601 15.2194 25.7194L22.1888 18.75L15.2194 11.7806C15.0787 11.6399 14.9996 11.449 14.9996 11.25C14.9996 11.051 15.0787 10.8601 15.2194 10.7194C15.3601 10.5786 15.551 10.4996 15.75 10.4996C15.949 10.4996 16.1399 10.5786 16.2806 10.7194L23.7806 18.2194Z" fill="#457460"/>
</svg>
