<svg width="39" height="38" viewBox="0 0 39 38" fill="none" xmlns="http://www.w3.org/2000/svg">
<path d="M19.5 0.25C15.7916 0.25 12.1665 1.34967 9.08307 3.40994C5.99965 5.47022 3.59641 8.39857 2.17727 11.8247C0.758124 15.2508 0.386812 19.0208 1.11028 22.6579C1.83376 26.2951 3.61952 29.636 6.24176 32.2583C8.86399 34.8805 12.2049 36.6663 15.8421 37.3897C19.4792 38.1132 23.2492 37.7419 26.6753 36.3227C30.1014 34.9036 33.0298 32.5004 35.0901 29.4169C37.1503 26.3335 38.25 22.7084 38.25 19C38.2445 14.0289 36.2674 9.2629 32.7522 5.74778C29.2371 2.23265 24.4711 0.255459 19.5 0.25ZM19.5 36.25C16.0883 36.25 12.7532 35.2383 9.91642 33.3428C7.07967 31.4474 4.8687 28.7533 3.56309 25.6013C2.25747 22.4493 1.91587 18.9809 2.58146 15.6347C3.24706 12.2885 4.88996 9.21486 7.30242 6.80241C9.71487 4.38995 12.7885 2.74705 16.1347 2.08145C19.4809 1.41586 22.9493 1.75747 26.1013 3.06308C29.2533 4.36869 31.9474 6.57966 33.8429 9.41641C35.7383 12.2532 36.75 15.5883 36.75 19C36.745 23.5735 34.926 27.9582 31.6921 31.1921C28.4582 34.426 24.0735 36.245 19.5 36.25ZM24.5306 18.4694C24.6004 18.539 24.6557 18.6217 24.6934 18.7128C24.7312 18.8038 24.7506 18.9014 24.7506 19C24.7506 19.0986 24.7312 19.1962 24.6934 19.2872C24.6557 19.3783 24.6004 19.461 24.5306 19.5306L17.0306 27.0306C16.8899 27.1714 16.699 27.2504 16.5 27.2504C16.301 27.2504 16.1101 27.1714 15.9694 27.0306C15.8287 26.8899 15.7496 26.699 15.7496 26.5C15.7496 26.301 15.8287 26.1101 15.9694 25.9694L22.9388 19L15.9694 12.0306C15.8287 11.8899 15.7496 11.699 15.7496 11.5C15.7496 11.301 15.8287 11.1101 15.9694 10.9694C16.1101 10.8286 16.301 10.7496 16.5 10.7496C16.699 10.7496 16.8899 10.8286 17.0306 10.9694L24.5306 18.4694Z" fill="#457460"/>
<path fill-rule="evenodd" clip-rule="evenodd" d="M19.5 36.25C16.0883 36.25 12.7532 35.2383 9.91642 33.3428C7.07967 31.4474 4.8687 28.7533 3.56309 25.6013C2.25747 22.4493 1.91587 18.9809 2.58146 15.6347C3.24706 12.2885 4.88996 9.21486 7.30242 6.80241C9.71487 4.38995 12.7885 2.74705 16.1347 2.08145C19.4809 1.41586 22.9493 1.75747 26.1013 3.06308C29.2533 4.36869 31.9474 6.57966 33.8429 9.41641C35.7383 12.2532 36.75 15.5883 36.75 19C36.745 23.5735 34.926 27.9582 31.6921 31.1921C28.4582 34.426 24.0735 36.245 19.5 36.25ZM24.6934 18.7128C24.6557 18.6217 24.6004 18.539 24.5306 18.4694L17.0306 10.9694C16.8899 10.8286 16.699 10.7496 16.5 10.7496C16.301 10.7496 16.1101 10.8286 15.9694 10.9694C15.8287 11.1101 15.7496 11.301 15.7496 11.5C15.7496 11.699 15.8287 11.8899 15.9694 12.0306L22.9388 19L15.9694 25.9694C15.8287 26.1101 15.7496 26.301 15.7496 26.5C15.7496 26.699 15.8287 26.8899 15.9694 27.0306C16.1101 27.1714 16.301 27.2504 16.5 27.2504C16.699 27.2504 16.8899 27.1714 17.0306 27.0306L24.5306 19.5306C24.6004 19.461 24.6557 19.3783 24.6934 19.2872C24.7312 19.1962 24.7506 19.0986 24.7506 19C24.7506 18.9014 24.7312 18.8038 24.6934 18.7128Z" fill="#EDE9DF"/>
</svg>
