<svg width="18.75" height="18.75" viewBox="0 0 39 38" fill="none" xmlns="http://www.w3.org/2000/svg">
<path d="M19.5 0.25C15.7916 0.25 12.1665 1.34967 9.08307 3.40994C5.99965 5.47022 3.59641 8.39857 2.17727 11.8247C0.758124 15.2508 0.386812 19.0208 1.11028 22.6579C1.83376 26.2951 3.61952 29.636 6.24176 32.2583C8.86399 34.8805 12.2049 36.6663 15.8421 37.3897C19.4792 38.1132 23.2492 37.7419 26.6753 36.3227C30.1014 34.9036 33.0298 32.5004 35.0901 29.4169C37.1503 26.3335 38.25 22.7084 38.25 19C38.2445 14.0289 36.2674 9.2629 32.7522 5.74778C29.2371 2.23265 24.4711 0.255459 19.5 0.25ZM19.5 36.25C16.0883 36.25 12.7532 35.2383 9.91642 33.3428C7.07967 31.4474 4.8687 28.7533 3.56309 25.6013C2.25747 22.4493 1.91587 18.9809 2.58146 15.6347C3.24706 12.2885 4.88996 9.21486 7.30242 6.80241C9.71487 4.38995 12.7885 2.74705 16.1347 2.08145C19.4809 1.41586 22.9493 1.75747 26.1013 3.06308C29.2533 4.36869 31.9474 6.57966 33.8429 9.41641C35.7383 12.2532 36.75 15.5883 36.75 19C36.745 23.5735 34.926 27.9582 31.6921 31.1921C28.4582 34.426 24.0735 36.245 19.5 36.25ZM23.0306 12.0306L16.0613 19L23.0306 25.9694C23.1714 26.1101 23.2504 26.301 23.2504 26.5C23.2504 26.699 23.1714 26.8899 23.0306 27.0306C22.8899 27.1714 22.699 27.2504 22.5 27.2504C22.301 27.2504 22.1101 27.1714 21.9694 27.0306L14.4694 19.5306C14.3997 19.461 14.3443 19.3783 14.3066 19.2872C14.2688 19.1962 14.2494 19.0986 14.2494 19C14.2494 18.9014 14.2688 18.8038 14.3066 18.7128C14.3443 18.6217 14.3997 18.539 14.4694 18.4694L21.9694 10.9694C22.0391 10.8997 22.1218 10.8444 22.2128 10.8067C22.3039 10.769 22.4015 10.7496 22.5 10.7496C22.5986 10.7496 22.6961 10.769 22.7872 10.8067C22.8782 10.8444 22.961 10.8997 23.0306 10.9694C23.1003 11.0391 23.1556 11.1218 23.1933 11.2128C23.231 11.3039 23.2504 11.4015 23.2504 11.5C23.2504 11.5985 23.231 11.6961 23.1933 11.7872C23.1556 11.8782 23.1003 11.9609 23.0306 12.0306Z" fill="#457460"/>
<path fill-rule="evenodd" clip-rule="evenodd" d="M19.5 36.25C16.0883 36.25 12.7532 35.2383 9.91642 33.3428C7.07967 31.4474 4.8687 28.7533 3.56309 25.6013C2.25747 22.4493 1.91587 18.9809 2.58146 15.6347C3.24706 12.2885 4.88996 9.21486 7.30242 6.80241C9.71487 4.38995 12.7885 2.74705 16.1347 2.08145C19.4809 1.41586 22.9493 1.75747 26.1013 3.06308C29.2533 4.36869 31.9474 6.57966 33.8429 9.41641C35.7383 12.2532 36.75 15.5883 36.75 19C36.745 23.5735 34.926 27.9582 31.6921 31.1921C28.4582 34.426 24.0735 36.245 19.5 36.25ZM16.0613 19L23.0306 12.0306C23.1003 11.9609 23.1556 11.8782 23.1933 11.7872C23.231 11.6961 23.2504 11.5985 23.2504 11.5C23.2504 11.4015 23.231 11.3039 23.1933 11.2128C23.1556 11.1218 23.1003 11.0391 23.0306 10.9694C22.961 10.8997 22.8782 10.8444 22.7872 10.8067C22.6961 10.769 22.5986 10.7496 22.5 10.7496C22.4015 10.7496 22.3039 10.769 22.2128 10.8067C22.1218 10.8444 22.0391 10.8997 21.9694 10.9694L14.4694 18.4694C14.3997 18.539 14.3443 18.6217 14.3066 18.7128C14.2688 18.8038 14.2494 18.9014 14.2494 19C14.2494 19.0986 14.2688 19.1962 14.3066 19.2872C14.3443 19.3783 14.3997 19.461 14.4694 19.5306L21.9694 27.0306C22.1101 27.1714 22.301 27.2504 22.5 27.2504C22.699 27.2504 22.8899 27.1714 23.0306 27.0306C23.1714 26.8899 23.2504 26.699 23.2504 26.5C23.2504 26.301 23.1714 26.1101 23.0306 25.9694L16.0613 19Z" fill="#EDE9DF"/>
</svg>
