<svg width="24" height="24" viewBox="0 0 24 24" fill="none" xmlns="http://www.w3.org/2000/svg">
<path d="M19.5742 3.31152H16.9492V2.18652C16.9492 2.08707 16.9097 1.99168 16.8394 1.92136C16.7691 1.85103 16.6737 1.81152 16.5742 1.81152C16.4748 1.81152 16.3794 1.85103 16.3091 1.92136C16.2387 1.99168 16.1992 2.08707 16.1992 2.18652V3.31152H7.94922V2.18652C7.94922 2.08707 7.90971 1.99168 7.83938 1.92136C7.76906 1.85103 7.67368 1.81152 7.57422 1.81152C7.47476 1.81152 7.37938 1.85103 7.30905 1.92136C7.23873 1.99168 7.19922 2.08707 7.19922 2.18652V3.31152H4.57422C4.27585 3.31152 3.9897 3.43005 3.77872 3.64103C3.56775 3.85201 3.44922 4.13815 3.44922 4.43652V19.4365C3.44922 19.7349 3.56775 20.021 3.77872 20.232C3.9897 20.443 4.27585 20.5615 4.57422 20.5615H19.5742C19.8726 20.5615 20.1587 20.443 20.3697 20.232C20.5807 20.021 20.6992 19.7349 20.6992 19.4365V4.43652C20.6992 4.13815 20.5807 3.85201 20.3697 3.64103C20.1587 3.43005 19.8726 3.31152 19.5742 3.31152ZM4.57422 4.06152H7.19922V5.18652C7.19922 5.28598 7.23873 5.38136 7.30905 5.45169C7.37938 5.52201 7.47476 5.56152 7.57422 5.56152C7.67368 5.56152 7.76906 5.52201 7.83938 5.45169C7.90971 5.38136 7.94922 5.28598 7.94922 5.18652V4.06152H16.1992V5.18652C16.1992 5.28598 16.2387 5.38136 16.3091 5.45169C16.3794 5.52201 16.4748 5.56152 16.5742 5.56152C16.6737 5.56152 16.7691 5.52201 16.8394 5.45169C16.9097 5.38136 16.9492 5.28598 16.9492 5.18652V4.06152H19.5742C19.6737 4.06152 19.7691 4.10103 19.8394 4.17136C19.9097 4.24168 19.9492 4.33707 19.9492 4.43652V7.81152H4.19922V4.43652C4.19922 4.33707 4.23873 4.24168 4.30905 4.17136C4.37938 4.10103 4.47476 4.06152 4.57422 4.06152ZM19.5742 19.8115H4.57422C4.47476 19.8115 4.37938 19.772 4.30905 19.7017C4.23873 19.6314 4.19922 19.536 4.19922 19.4365V8.56152H19.9492V19.4365C19.9492 19.536 19.9097 19.6314 19.8394 19.7017C19.7691 19.772 19.6737 19.8115 19.5742 19.8115ZM12.8242 12.3115C12.8242 12.4599 12.7802 12.6049 12.6978 12.7282C12.6154 12.8515 12.4983 12.9477 12.3612 13.0044C12.2242 13.0612 12.0734 13.0761 11.9279 13.0471C11.7824 13.0182 11.6488 12.9467 11.5439 12.8419C11.439 12.737 11.3676 12.6033 11.3386 12.4578C11.3097 12.3124 11.3245 12.1616 11.3813 12.0245C11.4381 11.8875 11.5342 11.7703 11.6575 11.6879C11.7809 11.6055 11.9259 11.5615 12.0742 11.5615C12.2731 11.5615 12.4639 11.6405 12.6045 11.7812C12.7452 11.9218 12.8242 12.1126 12.8242 12.3115ZM16.9492 12.3115C16.9492 12.4599 16.9052 12.6049 16.8228 12.7282C16.7404 12.8515 16.6233 12.9477 16.4862 13.0044C16.3492 13.0612 16.1984 13.0761 16.0529 13.0471C15.9074 13.0182 15.7738 12.9467 15.6689 12.8419C15.564 12.737 15.4926 12.6033 15.4636 12.4578C15.4347 12.3124 15.4495 12.1616 15.5063 12.0245C15.5631 11.8875 15.6592 11.7703 15.7825 11.6879C15.9059 11.6055 16.0509 11.5615 16.1992 11.5615C16.3981 11.5615 16.5889 11.6405 16.7295 11.7812C16.8702 11.9218 16.9492 12.1126 16.9492 12.3115ZM8.69922 16.0615C8.69922 16.2099 8.65523 16.3549 8.57282 16.4782C8.49041 16.6015 8.37328 16.6977 8.23623 16.7544C8.09919 16.8112 7.94839 16.8261 7.8029 16.7971C7.65742 16.7682 7.52378 16.6967 7.41889 16.5919C7.314 16.487 7.24257 16.3533 7.21363 16.2078C7.18469 16.0624 7.19954 15.9116 7.25631 15.7745C7.31307 15.6375 7.4092 15.5203 7.53254 15.4379C7.65588 15.3555 7.80088 15.3115 7.94922 15.3115C8.14813 15.3115 8.3389 15.3905 8.47955 15.5312C8.6202 15.6718 8.69922 15.8626 8.69922 16.0615ZM12.8242 16.0615C12.8242 16.2099 12.7802 16.3549 12.6978 16.4782C12.6154 16.6015 12.4983 16.6977 12.3612 16.7544C12.2242 16.8112 12.0734 16.8261 11.9279 16.7971C11.7824 16.7682 11.6488 16.6967 11.5439 16.5919C11.439 16.487 11.3676 16.3533 11.3386 16.2078C11.3097 16.0624 11.3245 15.9116 11.3813 15.7745C11.4381 15.6375 11.5342 15.5203 11.6575 15.4379C11.7809 15.3555 11.9259 15.3115 12.0742 15.3115C12.2731 15.3115 12.4639 15.3905 12.6045 15.5312C12.7452 15.6718 12.8242 15.8626 12.8242 16.0615ZM16.9492 16.0615C16.9492 16.2099 16.9052 16.3549 16.8228 16.4782C16.7404 16.6015 16.6233 16.6977 16.4862 16.7544C16.3492 16.8112 16.1984 16.8261 16.0529 16.7971C15.9074 16.7682 15.7738 16.6967 15.6689 16.5919C15.564 16.487 15.4926 16.3533 15.4636 16.2078C15.4347 16.0624 15.4495 15.9116 15.5063 15.7745C15.5631 15.6375 15.6592 15.5203 15.7825 15.4379C15.9059 15.3555 16.0509 15.3115 16.1992 15.3115C16.3981 15.3115 16.5889 15.3905 16.7295 15.5312C16.8702 15.6718 16.9492 15.8626 16.9492 16.0615Z" fill="#457460"/>
</svg>
