<svg width="36" height="36" viewBox="0 0 36 36" fill="none" xmlns="http://www.w3.org/2000/svg">
<path d="M35.4725 32.9257C35.6398 33.0929 35.7724 33.2914 35.8629 33.5099C35.9534 33.7284 36 33.9626 36 34.1991C36 34.4356 35.9534 34.6698 35.8629 34.8883C35.7724 35.1068 35.6398 35.3053 35.4725 35.4725C35.3053 35.6398 35.1068 35.7724 34.8883 35.8629C34.6698 35.9534 34.4356 36 34.1991 36C33.9626 36 33.7284 35.9534 33.5099 35.8629C33.2914 35.7724 33.0929 35.6398 32.9257 35.4725L18 20.5446L3.07433 35.4725C2.7366 35.8103 2.27853 36 1.8009 36C1.32327 36 0.865206 35.8103 0.527471 35.4725C0.189737 35.1348 9.4152e-09 34.6767 0 34.1991C-9.4152e-09 33.7215 0.189737 33.2634 0.527471 32.9257L15.4554 18L0.527471 3.07433C0.189737 2.7366 0 2.27853 0 1.8009C0 1.32327 0.189737 0.865206 0.527471 0.527471C0.865206 0.189737 1.32327 0 1.8009 0C2.27853 0 2.7366 0.189737 3.07433 0.527471L18 15.4554L32.9257 0.527471C33.2634 0.189737 33.7215 -9.4152e-09 34.1991 0C34.6767 9.4152e-09 35.1348 0.189737 35.4725 0.527471C35.8103 0.865206 36 1.32327 36 1.8009C36 2.27853 35.8103 2.7366 35.4725 3.07433L20.5446 18L35.4725 32.9257Z" fill="#457460"/>
</svg>
