<svg width="24" height="24" viewBox="0 0 24 24" fill="none" xmlns="http://www.w3.org/2000/svg">
<path d="M19.1474 18.3521C19.2027 18.4036 19.247 18.4657 19.2777 18.5347C19.3085 18.6037 19.325 18.6782 19.3263 18.7537C19.3277 18.8293 19.3138 18.9043 19.2855 18.9743C19.2572 19.0444 19.2151 19.108 19.1617 19.1614C19.1082 19.2148 19.0446 19.2569 18.9746 19.2852C18.9045 19.3135 18.8295 19.3274 18.754 19.3261C18.6785 19.3248 18.604 19.3082 18.535 19.2775C18.466 19.2467 18.4039 19.2024 18.3524 19.1471L11.9999 12.7956L5.64739 19.1471C5.54075 19.2465 5.39972 19.3006 5.25399 19.298C5.10827 19.2955 4.96923 19.2364 4.86617 19.1334C4.76311 19.0303 4.70407 18.8913 4.7015 18.7455C4.69893 18.5998 4.75302 18.4588 4.85238 18.3521L11.2039 11.9996L4.85238 5.64714C4.75302 5.54051 4.69893 5.39947 4.7015 5.25375C4.70407 5.10802 4.76311 4.96898 4.86617 4.86592C4.96923 4.76286 5.10827 4.70383 5.25399 4.70126C5.39972 4.69869 5.54075 4.75278 5.64739 4.85214L11.9999 11.2037L18.3524 4.85214C18.459 4.75278 18.6001 4.69869 18.7458 4.70126C18.8915 4.70383 19.0305 4.76286 19.1336 4.86592C19.2367 4.96898 19.2957 5.10802 19.2983 5.25375C19.3008 5.39947 19.2467 5.54051 19.1474 5.64714L12.7958 11.9996L19.1474 18.3521Z" fill="#465B4A"/>
</svg>
