<svg width="32" height="32" viewBox="0 0 32 32" fill="none" xmlns="http://www.w3.org/2000/svg">
<path d="M16 10.25C14.8628 10.25 13.7511 10.5872 12.8055 11.219C11.8599 11.8509 11.1229 12.7489 10.6877 13.7996C10.2525 14.8502 10.1386 16.0064 10.3605 17.1218C10.5824 18.2372 11.13 19.2617 11.9341 20.0659C12.7383 20.87 13.7628 21.4177 14.8782 21.6395C15.9936 21.8614 17.1498 21.7475 18.2004 21.3123C19.2511 20.8771 20.1491 20.1401 20.781 19.1945C21.4128 18.2489 21.75 17.1372 21.75 16C21.748 14.4756 21.1416 13.0142 20.0637 11.9363C18.9858 10.8584 17.5244 10.252 16 10.25ZM16 20.25C15.1594 20.25 14.3377 20.0007 13.6388 19.5337C12.9399 19.0668 12.3952 18.403 12.0735 17.6264C11.7518 16.8498 11.6677 15.9953 11.8317 15.1709C11.9956 14.3464 12.4004 13.5892 12.9948 12.9948C13.5892 12.4004 14.3464 11.9956 15.1709 11.8317C15.9953 11.6677 16.8498 11.7518 17.6264 12.0735C18.403 12.3952 19.0668 12.9399 19.5337 13.6388C20.0007 14.3377 20.25 15.1594 20.25 16C20.25 17.1272 19.8022 18.2082 19.0052 19.0052C18.2082 19.8022 17.1272 20.25 16 20.25ZM22 3.25H10C8.2104 3.25199 6.49466 3.96378 5.22922 5.22922C3.96378 6.49466 3.25199 8.2104 3.25 10V22C3.25199 23.7896 3.96378 25.5053 5.22922 26.7708C6.49466 28.0362 8.2104 28.748 10 28.75H22C23.7896 28.748 25.5053 28.0362 26.7708 26.7708C28.0362 25.5053 28.748 23.7896 28.75 22V10C28.748 8.2104 28.0362 6.49466 26.7708 5.22922C25.5053 3.96378 23.7896 3.25199 22 3.25ZM27.25 22C27.25 23.3924 26.6969 24.7277 25.7123 25.7123C24.7277 26.6969 23.3924 27.25 22 27.25H10C8.60761 27.25 7.27225 26.6969 6.28769 25.7123C5.30312 24.7277 4.75 23.3924 4.75 22V10C4.75 8.60761 5.30312 7.27225 6.28769 6.28769C7.27225 5.30312 8.60761 4.75 10 4.75H22C23.3924 4.75 24.7277 5.30312 25.7123 6.28769C26.6969 7.27225 27.25 8.60761 27.25 10V22ZM23.75 9.5C23.75 9.74723 23.6767 9.9889 23.5393 10.1945C23.402 10.4 23.2068 10.5602 22.9784 10.6548C22.7499 10.7495 22.4986 10.7742 22.2561 10.726C22.0137 10.6778 21.7909 10.5587 21.6161 10.3839C21.4413 10.2091 21.3223 9.98634 21.274 9.74386C21.2258 9.50139 21.2505 9.25005 21.3451 9.02165C21.4398 8.79324 21.6 8.59801 21.8055 8.46066C22.0111 8.32331 22.2528 8.25 22.5 8.25C22.8315 8.25 23.1495 8.3817 23.3839 8.61612C23.6183 8.85054 23.75 9.16848 23.75 9.5Z" fill="#465B4A"/>
</svg>
