<svg width="60" height="32" viewBox="0 0 60 32" fill="none" xmlns="http://www.w3.org/2000/svg">
<path d="M52.5 16C52.5 16.2652 52.3025 16.5196 51.9508 16.7071C51.5992 16.8946 51.1223 17 50.625 17H9.375C8.87772 17 8.40081 16.8946 8.04918 16.7071C7.69754 16.5196 7.5 16.2652 7.5 16C7.5 15.7348 7.69754 15.4804 8.04918 15.2929C8.40081 15.1054 8.87772 15 9.375 15H50.625C51.1223 15 51.5992 15.1054 51.9508 15.2929C52.3025 15.4804 52.5 15.7348 52.5 16ZM9.375 9H50.625C51.1223 9 51.5992 8.89464 51.9508 8.70711C52.3025 8.51957 52.5 8.26522 52.5 8C52.5 7.73478 52.3025 7.48043 51.9508 7.29289C51.5992 7.10536 51.1223 7 50.625 7H9.375C8.87772 7 8.40081 7.10536 8.04918 7.29289C7.69754 7.48043 7.5 7.73478 7.5 8C7.5 8.26522 7.69754 8.51957 8.04918 8.70711C8.40081 8.89464 8.87772 9 9.375 9ZM50.625 23H9.375C8.87772 23 8.40081 23.1054 8.04918 23.2929C7.69754 23.4804 7.5 23.7348 7.5 24C7.5 24.2652 7.69754 24.5196 8.04918 24.7071C8.40081 24.8946 8.87772 25 9.375 25H50.625C51.1223 25 51.5992 24.8946 51.9508 24.7071C52.3025 24.5196 52.5 24.2652 52.5 24C52.5 23.7348 52.3025 23.4804 51.9508 23.2929C51.5992 23.1054 51.1223 23 50.625 23Z" fill="#FDFCFB"/>
</svg>
