<svg width="32" height="32" viewBox="0 0 32 32" fill="none" xmlns="http://www.w3.org/2000/svg">
<rect x="0.5" y="0.5" width="31" height="31" rx="15.5" fill="#457460"/>
<rect x="0.5" y="0.5" width="31" height="31" rx="15.5" stroke="#465B4A"/>
<path d="M24.625 15.5625C24.625 15.7117 24.5657 15.8548 24.4602 15.9602C24.3548 16.0657 24.2117 16.125 24.0625 16.125H7.5625C7.41332 16.125 7.27024 16.0657 7.16475 15.9602C7.05926 15.8548 7 15.7117 7 15.5625C7 15.4133 7.05926 15.2702 7.16475 15.1648C7.27024 15.0593 7.41332 15 7.5625 15H24.0625C24.2117 15 24.3548 15.0593 24.4602 15.1648C24.5657 15.2702 24.625 15.4133 24.625 15.5625Z" fill="#EDE9DF"/>
</svg>
