<svg width="32" height="32" viewBox="0 0 32 32" fill="none" xmlns="http://www.w3.org/2000/svg">
<rect x="0.5" y="0.5" width="31" height="31" rx="15.5" stroke="#465B4A"/>
<path d="M24.8125 16C24.8125 16.1492 24.7532 16.2923 24.6477 16.3977C24.5423 16.5032 24.3992 16.5625 24.25 16.5625H16.5625V24.25C16.5625 24.3992 16.5032 24.5423 16.3977 24.6477C16.2923 24.7532 16.1492 24.8125 16 24.8125C15.8508 24.8125 15.7077 24.7532 15.6023 24.6477C15.4968 24.5423 15.4375 24.3992 15.4375 24.25V16.5625H7.75C7.60082 16.5625 7.45774 16.5032 7.35225 16.3977C7.24676 16.2923 7.1875 16.1492 7.1875 16C7.1875 15.8508 7.24676 15.7077 7.35225 15.6023C7.45774 15.4968 7.60082 15.4375 7.75 15.4375H15.4375V7.75C15.4375 7.60082 15.4968 7.45774 15.6023 7.35225C15.7077 7.24676 15.8508 7.1875 16 7.1875C16.1492 7.1875 16.2923 7.24676 16.3977 7.35225C16.5032 7.45774 16.5625 7.60082 16.5625 7.75V15.4375H24.25C24.3992 15.4375 24.5423 15.4968 24.6477 15.6023C24.7532 15.7077 24.8125 15.8508 24.8125 16Z" fill="#465B4A"/>
</svg>
