<svg width="62" height="20" viewBox="0 0 62 20" fill="none" xmlns="http://www.w3.org/2000/svg">
<path d="M1 9.5C0.723858 9.5 0.5 9.72386 0.5 10C0.5 10.2761 0.723858 10.5 1 10.5V9.5ZM61.3536 10.3536C61.5488 10.1583 61.5488 9.84171 61.3536 9.64645L58.1716 6.46447C57.9763 6.2692 57.6597 6.2692 57.4645 6.46447C57.2692 6.65973 57.2692 6.97631 57.4645 7.17157L60.2929 10L57.4645 12.8284C57.2692 13.0237 57.2692 13.3403 57.4645 13.5355C57.6597 13.7308 57.9763 13.7308 58.1716 13.5355L61.3536 10.3536ZM1 10.5H61V9.5H1V10.5Z" fill="#465B4A"/>
</svg>
