<svg width="24" height="24" viewBox="0 0 24 24" fill="none" xmlns="http://www.w3.org/2000/svg">
<path d="M2.625 12C2.625 13.8542 3.17483 15.6668 4.20497 17.2085C5.23511 18.7502 6.69929 19.9518 8.41234 20.6614C10.1254 21.3709 12.0104 21.5566 13.829 21.1949C15.6475 20.8331 17.318 19.9402 18.6291 18.6291C19.9402 17.318 20.8331 15.6475 21.1949 13.829C21.5566 12.0104 21.3709 10.1254 20.6614 8.41234C19.9518 6.69928 18.7502 5.23511 17.2085 4.20497C15.6668 3.17483 13.8542 2.625 12 2.625C9.51443 2.62773 7.13145 3.61632 5.37389 5.37388C3.61633 7.13145 2.62773 9.51443 2.625 12ZM20.625 12C20.625 13.7059 20.1192 15.3734 19.1714 16.7918C18.2237 18.2102 16.8767 19.3157 15.3006 19.9685C13.7246 20.6213 11.9904 20.7921 10.3173 20.4593C8.64426 20.1265 7.10743 19.305 5.9012 18.0988C4.69498 16.8926 3.87352 15.3557 3.54073 13.6826C3.20793 12.0096 3.37873 10.2754 4.03154 8.69935C4.68434 7.12334 5.78983 5.7763 7.20821 4.82857C8.62658 3.88084 10.2941 3.375 12 3.375C14.2867 3.37748 16.4791 4.28698 18.0961 5.90394C19.713 7.5209 20.6225 9.71326 20.625 12ZM8.51531 10.2347L12 13.7194L15.4847 10.2347C15.5551 10.1643 15.6505 10.1248 15.75 10.1248C15.8495 10.1248 15.9449 10.1643 16.0153 10.2347C16.0857 10.305 16.1252 10.4005 16.1252 10.5C16.1252 10.5995 16.0857 10.6949 16.0153 10.7653L12.2653 14.5153C12.2305 14.5502 12.1891 14.5778 12.1436 14.5967C12.0981 14.6156 12.0493 14.6253 12 14.6253C11.9507 14.6253 11.9019 14.6156 11.8564 14.5967C11.8109 14.5778 11.7695 14.5502 11.7347 14.5153L7.98469 10.7653C7.94985 10.7305 7.92221 10.6891 7.90335 10.6436C7.8845 10.5981 7.87479 10.5493 7.87479 10.5C7.87479 10.4507 7.8845 10.4019 7.90335 10.3564C7.92221 10.3109 7.94985 10.2695 7.98469 10.2347C8.01953 10.1998 8.06089 10.1722 8.10641 10.1533C8.15194 10.1345 8.20073 10.1248 8.25 10.1248C8.29927 10.1248 8.34806 10.1345 8.39359 10.1533C8.43911 10.1722 8.48047 10.1998 8.51531 10.2347Z" fill="#457460"/>
<path fill-rule="evenodd" clip-rule="evenodd" d="M20.625 12C20.625 13.7059 20.1192 15.3734 19.1714 16.7918C18.2237 18.2102 16.8767 19.3157 15.3006 19.9685C13.7246 20.6213 11.9904 20.7921 10.3173 20.4593C8.64426 20.1265 7.10743 19.305 5.9012 18.0988C4.69498 16.8926 3.87352 15.3557 3.54073 13.6826C3.20793 12.0096 3.37873 10.2754 4.03154 8.69935C4.68434 7.12334 5.78983 5.7763 7.20821 4.82857C8.62658 3.88084 10.2941 3.375 12 3.375C14.2867 3.37748 16.4791 4.28698 18.0961 5.90394C19.713 7.5209 20.6225 9.71326 20.625 12ZM12 13.7194L8.51531 10.2347C8.48047 10.1998 8.43911 10.1722 8.39359 10.1533C8.34806 10.1345 8.29927 10.1248 8.25 10.1248C8.20073 10.1248 8.15194 10.1345 8.10641 10.1533C8.06089 10.1722 8.01953 10.1998 7.98469 10.2347C7.94985 10.2695 7.92221 10.3109 7.90335 10.3564C7.8845 10.4019 7.87479 10.4507 7.87479 10.5C7.87479 10.5493 7.8845 10.5981 7.90335 10.6436C7.92221 10.6891 7.94985 10.7305 7.98469 10.7653L11.7347 14.5153C11.7695 14.5502 11.8109 14.5778 11.8564 14.5967C11.9019 14.6156 11.9507 14.6253 12 14.6253C12.0493 14.6253 12.0981 14.6156 12.1436 14.5967C12.1891 14.5778 12.2305 14.5502 12.2653 14.5153L16.0153 10.7653C16.0857 10.6949 16.1252 10.5995 16.1252 10.5C16.1252 10.4005 16.0857 10.305 16.0153 10.2347C15.9449 10.1643 15.8495 10.1248 15.75 10.1248C15.6505 10.1248 15.5551 10.1643 15.4847 10.2347L12 13.7194Z" fill="transparent"/>
</svg>
