<svg width="78" height="44" viewBox="0 0 78 44" fill="none" xmlns="http://www.w3.org/2000/svg">
<ellipse cx="42.2503" cy="22" rx="14.0833" ry="12.1" fill="#FFF8E6"/>
<path fill-rule="evenodd" clip-rule="evenodd" d="M3.77467 37.6346C6.49209 37.6346 8.52995 39.0333 10.4925 40.1066C12.128 40.9886 13.7383 41.6842 15.5248 41.6842C17.2861 41.6842 18.8964 40.9886 20.5319 40.1066C22.4944 39.0333 24.5329 37.6346 27.2503 37.6346C29.9678 37.6346 32.0057 39.0333 33.9934 40.1066C35.6289 40.9886 37.214 41.6842 39.0005 41.6842C40.7869 41.6842 42.3721 40.9886 44.0075 40.1066C45.9953 39.0333 48.0332 37.6346 50.7506 37.6346C53.468 37.6346 55.4813 39.0333 57.4691 40.1066C59.1046 40.9886 60.7149 41.6842 62.4761 41.6842C64.2626 41.6842 65.8729 40.9886 67.4832 40.1066C69.471 39.0333 71.5089 37.6346 74.2263 37.6346C74.9308 37.6346 75.4843 37.0781 75.4843 36.3924C75.4843 35.7067 74.9308 35.1501 74.2263 35.1501C71.534 35.1501 69.3702 36.2234 67.3573 37.334C65.7218 38.2358 64.2374 39.1998 62.4761 39.1998C60.74 39.1998 59.2299 38.2358 57.6196 37.334C55.6067 36.2234 53.4429 35.1501 50.7506 35.1501C48.0332 35.1501 45.8694 36.2234 43.8816 37.334C42.2461 38.2358 40.7366 39.1998 39.0005 39.1998C37.2643 39.1998 35.7548 38.2358 34.1193 37.334C32.1064 36.2234 29.9678 35.1501 27.2503 35.1501C24.5581 35.1501 22.3943 36.2234 20.3814 37.334C18.771 38.2358 17.2609 39.1998 15.5248 39.1998C13.7635 39.1998 12.2791 38.2358 10.6436 37.334C8.63075 36.2234 6.46692 35.1501 3.77467 35.1501C3.07015 35.1501 2.5166 35.7067 2.5166 36.3924C2.5166 37.0781 3.07015 37.6346 3.77467 37.6346ZM23.6015 25.8708C22.444 26.2782 21.413 26.8298 20.3814 27.3888C18.771 28.2906 17.2609 29.2546 15.5248 29.2546C13.7635 29.2546 12.2791 28.2906 10.6436 27.3888C8.63075 26.2782 6.46692 25.2049 3.77467 25.2049C3.07015 25.2049 2.5166 25.7615 2.5166 26.4472C2.5166 27.1329 3.07015 27.6894 3.77467 27.6894C6.49209 27.6894 8.52995 29.0881 10.4925 30.1614C12.128 31.0434 13.7383 31.739 15.5248 31.739C17.2861 31.739 18.8964 31.0434 20.5319 30.1614C22.4944 29.0881 24.5329 27.6894 27.2503 27.6894C29.9678 27.6894 32.0057 29.0881 33.9934 30.1614C35.6289 31.0434 37.214 31.739 39.0005 31.739C40.7869 31.739 42.3721 31.0434 44.0075 30.1614C45.9953 29.0881 48.0332 27.6894 50.7506 27.6894C53.468 27.6894 55.4813 29.0881 57.4691 30.1614C59.1046 31.0434 60.7149 31.739 62.4761 31.739C64.2626 31.739 65.8729 31.0434 67.4832 30.1614C69.471 29.0881 71.5089 27.6894 74.2263 27.6894C74.9308 27.6894 75.4843 27.1329 75.4843 26.4472C75.4843 25.7615 74.9308 25.2049 74.2263 25.2049C71.534 25.2049 69.3702 26.2782 67.3573 27.3888C65.7218 28.2906 64.2374 29.2546 62.4761 29.2546C60.74 29.2546 59.2299 28.2906 57.6196 27.3888C56.5376 26.7999 55.4309 26.2211 54.2232 25.8087C53.3677 21.6224 50.7761 17.8038 46.7252 15.5007C39.2774 11.2424 29.691 13.774 25.3884 21.1454C24.5078 22.6559 23.9034 24.2509 23.6015 25.8708ZM51.5056 25.2348C50.5998 22.1466 48.5116 19.3864 45.4671 17.6522C39.2019 14.0796 31.2004 16.2038 27.5771 22.3876C27.0236 23.3093 26.621 24.2708 26.3191 25.2472C26.6462 25.2198 26.9484 25.2049 27.2503 25.2049C29.9678 25.2049 32.1064 26.2782 34.1193 27.3888C35.7548 28.2906 37.2643 29.2546 39.0005 29.2546C40.7366 29.2546 42.2461 28.2906 43.8816 27.3888C45.8694 26.2782 48.0332 25.2049 50.7506 25.2049C51.0022 25.2049 51.2539 25.2149 51.5056 25.2348ZM21.8403 17.687L17.3615 15.133C16.7576 14.7902 15.9778 14.9939 15.6255 15.5877C15.2984 16.1814 15.4996 16.9417 16.1035 17.2845L20.5822 19.8385C21.1861 20.1814 21.9665 19.9777 22.2936 19.3839C22.6459 18.7901 22.4442 18.0299 21.8403 17.687ZM57.2676 19.8385L61.7464 17.2845C62.3502 16.9417 62.5514 16.1814 62.1991 15.5877C61.8468 14.9939 61.0922 14.7902 60.4883 15.133L56.0095 17.687C55.4057 18.0299 55.2045 18.7901 55.5316 19.3839C55.8839 19.9777 56.6637 20.1814 57.2676 19.8385ZM29.7917 10.7505L27.2 6.32569C26.8477 5.73191 26.0924 5.52818 25.4886 5.87103C24.8847 6.21388 24.6835 6.97412 25.0106 7.56791L27.6023 11.9927C27.9546 12.5865 28.7344 12.7902 29.3131 12.4473C29.917 12.1045 30.1439 11.3442 29.7917 10.7505ZM50.2223 11.9927L52.814 7.56791C53.1662 6.97412 52.9651 6.21388 52.3613 5.87103C51.7574 5.52818 51.0021 5.73191 50.6498 6.32569L48.0588 10.7505C47.7065 11.3442 47.9076 12.1045 48.5115 12.4473C49.1154 12.7902 49.8952 12.5865 50.2223 11.9927ZM40.183 8.6685V3.55802C40.183 2.87231 39.6043 2.3158 38.9249 2.3158C38.2204 2.3158 37.6668 2.87231 37.6668 3.55802V8.6685C37.6668 9.35173 38.2204 9.91072 38.9249 9.91072C39.6043 9.91072 40.183 9.35173 40.183 8.6685Z" fill="#457460"/>
</svg>
