<svg width="32" height="32" viewBox="0 0 32 32" fill="none" xmlns="http://www.w3.org/2000/svg">
<path d="M29.4462 3.46283C29.3256 3.35867 29.1788 3.28941 29.0218 3.26253C28.8647 3.23566 28.7033 3.25219 28.5549 3.31033L3.22243 13.2241C2.91431 13.3446 2.65362 13.5619 2.47951 13.8433C2.3054 14.1246 2.22727 14.4549 2.25686 14.7844C2.28645 15.114 2.42215 15.425 2.64359 15.6709C2.86503 15.9167 3.16026 16.0841 3.48493 16.1478L10.2499 17.4766V25.0003C10.2501 25.3491 10.3544 25.6899 10.5496 25.979C10.7448 26.2681 11.022 26.4922 11.3455 26.6226C11.669 26.7531 12.024 26.7839 12.3652 26.7111C12.7063 26.6383 13.0179 26.4652 13.2599 26.2141L16.5899 22.7603L21.7874 27.3166C22.1048 27.5974 22.5137 27.7525 22.9374 27.7528C23.1225 27.7524 23.3063 27.7233 23.4824 27.6666C23.7712 27.5752 24.0309 27.4097 24.2358 27.1867C24.4406 26.9636 24.5834 26.6908 24.6499 26.3953L29.7274 4.32158C29.7631 4.1664 29.7558 4.00442 29.7062 3.85309C29.6567 3.70176 29.5668 3.56683 29.4462 3.46283ZM3.75618 14.6716C3.75139 14.6587 3.75139 14.6445 3.75618 14.6316C3.76183 14.6272 3.76816 14.6238 3.77493 14.6216L23.7387 6.80658L10.8262 16.0566L3.77493 14.6766L3.75618 14.6716ZM12.1799 25.1716C12.1455 25.2073 12.1012 25.232 12.0526 25.2425C12.0041 25.2529 11.9535 25.2487 11.9074 25.2304C11.8613 25.212 11.8217 25.1803 11.7936 25.1393C11.7656 25.0984 11.7504 25.05 11.7499 25.0003V18.5141L15.4612 21.7641L12.1799 25.1716ZM23.1887 26.0566C23.1795 26.0988 23.1591 26.1379 23.1296 26.1695C23.1001 26.2012 23.0627 26.2243 23.0212 26.2366C22.9789 26.2514 22.9333 26.2546 22.8893 26.2458C22.8453 26.237 22.8045 26.2166 22.7712 26.1866L12.2049 16.9178L27.8749 5.68783L23.1887 26.0566Z" fill="#FDFCFB"/>
</svg>
