<svg width="32" height="32" viewBox="0 0 32 32" fill="none" xmlns="http://www.w3.org/2000/svg">
<path d="M28.6101 3.27352C28.4551 3.13973 28.2666 3.05075 28.0649 3.01617C27.8631 2.98159 27.6557 3.00271 27.4651 3.07727L2.13257 12.991C1.77355 13.1306 1.4696 13.3831 1.26648 13.7104C1.06335 14.0377 0.972051 14.4221 1.00632 14.8058C1.04058 15.1895 1.19856 15.5516 1.45646 15.8378C1.71437 16.1239 2.05825 16.3185 2.43632 16.3923L9.00007 17.681V24.9998C8.99878 25.3984 9.11725 25.7883 9.34012 26.1188C9.563 26.4493 9.88001 26.7053 10.2501 26.8535C10.6196 27.0044 11.0259 27.0406 11.4162 26.9575C11.8066 26.8743 12.1629 26.6756 12.4388 26.3873L15.6038 23.1048L20.6251 27.4998C20.9873 27.8211 21.4546 27.9989 21.9388 27.9998C22.151 27.9996 22.3619 27.9663 22.5638 27.901C22.8938 27.7963 23.1905 27.607 23.4245 27.352C23.6585 27.0969 23.8216 26.785 23.8976 26.4473L28.9713 4.37477C29.0167 4.17571 29.0071 3.96805 28.9434 3.77405C28.8798 3.58005 28.7646 3.40702 28.6101 3.27352ZM21.9413 25.9998L11.6063 16.9373L26.4813 6.27602L21.9413 25.9998Z" fill="#FDFCFB"/>
</svg>
