<svg width="32" height="32" viewBox="0 0 32 32" fill="none" xmlns="http://www.w3.org/2000/svg">
<path d="M29.4464 3.46283C29.3258 3.35867 29.1791 3.28941 29.022 3.26253C28.865 3.23566 28.7035 3.25219 28.5552 3.31033L3.22267 13.2241C2.91455 13.3446 2.65386 13.5619 2.47975 13.8433C2.30564 14.1246 2.22752 14.4549 2.2571 14.7844C2.28669 15.114 2.42239 15.425 2.64384 15.6709C2.86528 15.9167 3.1605 16.0841 3.48517 16.1478L10.2502 17.4766V25.0003C10.2503 25.3491 10.3547 25.6899 10.5499 25.979C10.7451 26.2681 11.0222 26.4922 11.3457 26.6226C11.6692 26.7531 12.0243 26.7839 12.3654 26.7111C12.7065 26.6383 13.0181 26.4652 13.2602 26.2141L16.5902 22.7603L21.7877 27.3166C22.105 27.5974 22.514 27.7525 22.9377 27.7528C23.1227 27.7524 23.3066 27.7233 23.4827 27.6666C23.7714 27.5752 24.0312 27.4097 24.236 27.1867C24.4409 26.9636 24.5837 26.6908 24.6502 26.3953L29.7277 4.32158C29.7634 4.1664 29.756 4.00442 29.7065 3.85309C29.6569 3.70176 29.567 3.56683 29.4464 3.46283ZM3.75642 14.6716C3.75164 14.6587 3.75164 14.6445 3.75642 14.6316C3.76207 14.6272 3.76841 14.6238 3.77517 14.6216L23.7389 6.80658L10.8264 16.0566L3.77517 14.6766L3.75642 14.6716ZM12.1802 25.1716C12.1457 25.2073 12.1014 25.232 12.0529 25.2425C12.0043 25.2529 11.9538 25.2487 11.9077 25.2304C11.8615 25.212 11.8219 25.1803 11.7939 25.1393C11.7658 25.0984 11.7506 25.05 11.7502 25.0003V18.5141L15.4614 21.7641L12.1802 25.1716ZM23.1889 26.0566C23.1797 26.0988 23.1593 26.1379 23.1298 26.1695C23.1004 26.2012 23.0629 26.2243 23.0214 26.2366C22.9791 26.2514 22.9336 26.2546 22.8896 26.2458C22.8456 26.237 22.8048 26.2166 22.7714 26.1866L12.2052 16.9178L27.8752 5.68783L23.1889 26.0566Z" fill="#465B4A"/>
</svg>
