<svg width="32" height="32" viewBox="0 0 32 32" fill="none" xmlns="http://www.w3.org/2000/svg">
<path d="M19.0725 18.1533L21.9475 19.5883C21.8112 20.2693 21.4429 20.8818 20.9054 21.3216C20.3679 21.7613 19.6945 22.0009 19 21.9995C16.6139 21.9969 14.3262 21.0478 12.639 19.3606C10.9517 17.6733 10.0026 15.3857 10 12.9996C9.99981 12.306 10.24 11.6337 10.6796 11.0972C11.1192 10.5607 11.7311 10.1932 12.4113 10.0571L13.8462 12.9321L12.625 14.7496C12.5337 14.8864 12.4777 15.0437 12.4617 15.2075C12.4458 15.3712 12.4706 15.5364 12.5337 15.6883C13.2492 17.3888 14.602 18.7416 16.3025 19.4571C16.4549 19.523 16.6213 19.5501 16.7867 19.5357C16.9521 19.5213 17.1113 19.4659 17.25 19.3745L19.0725 18.1533ZM29 15.9996C29.0005 18.244 28.4199 20.4503 27.3147 22.4037C26.2095 24.3572 24.6174 25.9912 22.6934 27.1468C20.7693 28.3024 18.5788 28.9402 16.3352 28.9981C14.0915 29.0559 11.8711 28.5319 9.89 27.4771L5.63375 28.8958C5.28136 29.0133 4.9032 29.0304 4.54166 28.9451C4.18012 28.8597 3.84948 28.6754 3.58681 28.4127C3.32414 28.1501 3.13982 27.8194 3.0545 27.4579C2.96918 27.0964 2.98623 26.7182 3.10375 26.3658L4.5225 22.1096C3.59519 20.3661 3.07725 18.4343 3.008 16.4608C2.93875 14.4872 3.32001 12.5239 4.12284 10.7197C4.92567 8.91555 6.12897 7.31798 7.6414 6.04829C9.15383 4.7786 10.9356 3.87015 12.8516 3.39189C14.7675 2.91364 16.7672 2.87816 18.699 3.28814C20.6307 3.69811 22.4436 4.54278 24.0001 5.75801C25.5566 6.97325 26.8158 8.52712 27.6822 10.3017C28.5485 12.0762 28.9992 14.0248 29 15.9996ZM24 18.9996C24.0001 18.8138 23.9485 18.6316 23.8509 18.4735C23.7533 18.3155 23.6136 18.1877 23.4475 18.1046L19.4475 16.1046C19.29 16.0261 19.1147 15.9906 18.9391 16.0015C18.7635 16.0125 18.594 16.0696 18.4475 16.1671L16.6112 17.3921C15.7683 16.9287 15.0746 16.235 14.6112 15.3921L15.8363 13.5558C15.9337 13.4093 15.9908 13.2398 16.0018 13.0642C16.0127 12.8886 15.9772 12.7133 15.8988 12.5558L13.8988 8.5558C13.8159 8.38839 13.6877 8.24755 13.5289 8.14923C13.37 8.05092 13.1868 7.99907 13 7.99955C11.6739 7.99955 10.4021 8.52633 9.46447 9.46402C8.52678 10.4017 8 11.6735 8 12.9996C8.00331 15.9159 9.1633 18.7119 11.2255 20.7741C13.2877 22.8363 16.0836 23.9962 19 23.9995C19.6566 23.9995 20.3068 23.8702 20.9134 23.6189C21.52 23.3677 22.0712 22.9994 22.5355 22.5351C22.9998 22.0708 23.3681 21.5196 23.6194 20.913C23.8707 20.3063 24 19.6562 24 18.9996Z" fill="#FDFCFB"/>
</svg>
