<svg width="32" height="32" viewBox="0 0 32 32" fill="none" xmlns="http://www.w3.org/2000/svg">
<path d="M23.3352 18.3288L19.3352 16.3288C19.2171 16.27 19.0855 16.2434 18.9539 16.2518C18.8222 16.2601 18.695 16.3031 18.5852 16.3762L16.6252 17.6825C15.633 17.1745 14.8257 16.3673 14.3177 15.375L15.6252 13.4163C15.6984 13.3065 15.7414 13.1793 15.7497 13.0476C15.758 12.9159 15.7315 12.7844 15.6727 12.6663L13.6727 8.66625C13.6106 8.54111 13.5146 8.43582 13.3958 8.36228C13.277 8.28873 13.14 8.24984 13.0002 8.25C11.7405 8.25 10.5323 8.75045 9.64148 9.64124C8.75068 10.532 8.25024 11.7402 8.25024 13C8.25354 15.8501 9.38719 18.5824 11.4025 20.5977C13.4178 22.613 16.1502 23.7467 19.0002 23.75C20.26 23.75 21.4682 23.2496 22.359 22.3588C23.2498 21.468 23.7502 20.2598 23.7502 19C23.7503 18.8606 23.7115 18.7239 23.6382 18.6054C23.5649 18.4868 23.46 18.391 23.3352 18.3288ZM19.0002 22.25C16.5479 22.247 14.1969 21.2715 12.4628 19.5374C10.7287 17.8034 9.75321 15.4523 9.75024 13C9.75031 12.2156 10.0341 11.4577 10.5491 10.8662C11.0642 10.2746 11.7758 9.88925 12.5527 9.78125L14.1352 12.9462L12.8365 14.8938C12.7682 14.9965 12.7264 15.1144 12.7146 15.2372C12.7028 15.3599 12.7215 15.4837 12.769 15.5975C13.4586 17.2372 14.763 18.5416 16.4027 19.2313C16.5166 19.2787 16.6403 19.2974 16.7631 19.2856C16.8858 19.2738 17.0038 19.232 17.1065 19.1637L19.054 17.865L22.219 19.4475C22.111 20.2244 21.7257 20.936 21.1341 21.4511C20.5425 21.9662 19.7846 22.2499 19.0002 22.25ZM16.0002 3.25C13.79 3.24954 11.6175 3.82366 9.6961 4.91604C7.77465 6.00843 6.17017 7.58155 5.04009 9.48107C3.91001 11.3806 3.29313 13.5413 3.24999 15.7511C3.20684 17.961 3.73891 20.1441 4.79399 22.0863L3.34149 26.445C3.23866 26.7533 3.22373 27.0842 3.29839 27.4006C3.37305 27.7169 3.53433 28.0062 3.76417 28.2361C3.994 28.4659 4.28331 28.6272 4.59966 28.7018C4.916 28.7765 5.24689 28.7616 5.55524 28.6588L9.91399 27.2062C11.6202 28.1322 13.5153 28.6563 15.4549 28.7385C17.3944 28.8208 19.3271 28.4591 21.1056 27.681C22.8842 26.903 24.4615 25.729 25.7175 24.2488C26.9734 22.7685 27.8747 21.021 28.3527 19.1395C28.8307 17.258 28.8728 15.2922 28.4757 13.3919C28.0786 11.4917 27.2529 9.70725 26.0614 8.17462C24.8699 6.64199 23.3442 5.40167 21.6006 4.54822C19.857 3.69478 17.9415 3.25075 16.0002 3.25ZM16.0002 27.25C14.0227 27.2505 12.0799 26.7296 10.3677 25.74C10.2536 25.6744 10.1244 25.6395 9.99274 25.6388C9.91204 25.6392 9.8319 25.6523 9.75524 25.6775L5.08149 27.235C5.03744 27.2497 4.99017 27.2518 4.94497 27.2412C4.89978 27.2305 4.85845 27.2075 4.82562 27.1746C4.79279 27.1418 4.76974 27.1005 4.75908 27.0553C4.74841 27.0101 4.75055 26.9628 4.76524 26.9188L6.32274 22.25C6.35643 22.1491 6.36829 22.0422 6.35751 21.9364C6.34674 21.8306 6.31358 21.7283 6.26024 21.6362C5.01931 19.4926 4.52051 16.9994 4.84123 14.5433C5.16194 12.0873 6.28425 9.8057 8.03402 8.0526C9.7838 6.2995 12.0632 5.17287 14.5187 4.84749C16.9741 4.52211 19.4683 5.01618 21.6143 6.25304C23.7603 7.4899 25.4381 9.40041 26.3874 11.6882C27.3367 13.9759 27.5045 16.513 26.8647 18.9059C26.225 21.2987 24.8134 23.4136 22.849 24.9223C20.8845 26.431 18.4771 27.2492 16.0002 27.25Z" fill="#465B4A"/>
</svg>
