<svg width="32" height="32" viewBox="0 0 32 32" fill="none" xmlns="http://www.w3.org/2000/svg">
<path d="M23.335 18.3288L19.335 16.3288C19.2169 16.27 19.0853 16.2434 18.9536 16.2518C18.8219 16.2601 18.6948 16.3031 18.585 16.3762L16.625 17.6825C15.6327 17.1745 14.8255 16.3673 14.3175 15.375L15.625 13.4163C15.6982 13.3065 15.7411 13.1793 15.7495 13.0476C15.7578 12.9159 15.7312 12.7844 15.6725 12.6663L13.6725 8.66625C13.6103 8.54111 13.5144 8.43582 13.3956 8.36228C13.2767 8.28873 13.1397 8.24984 13 8.25C11.7402 8.25 10.532 8.75045 9.64124 9.64124C8.75044 10.532 8.24999 11.7402 8.24999 13C8.2533 15.8501 9.38695 18.5824 11.4022 20.5977C13.4175 22.613 16.1499 23.7467 19 23.75C20.2598 23.75 21.468 23.2496 22.3588 22.3588C23.2495 21.468 23.75 20.2598 23.75 19C23.75 18.8606 23.7112 18.7239 23.6379 18.6054C23.5646 18.4868 23.4597 18.391 23.335 18.3288ZM19 22.25C16.5477 22.247 14.1966 21.2715 12.4625 19.5374C10.7285 17.8034 9.75297 15.4523 9.74999 13C9.75006 12.2156 10.0338 11.4577 10.5489 10.8662C11.0639 10.2746 11.7756 9.88925 12.5525 9.78125L14.135 12.9462L12.8362 14.8938C12.768 14.9965 12.7261 15.1144 12.7144 15.2372C12.7026 15.3599 12.7213 15.4837 12.7687 15.5975C13.4584 17.2372 14.7628 18.5416 16.4025 19.2313C16.5163 19.2787 16.6401 19.2974 16.7628 19.2856C16.8856 19.2738 17.0035 19.232 17.1062 19.1637L19.0537 17.865L22.2187 19.4475C22.1107 20.2244 21.7254 20.936 21.1338 21.4511C20.5423 21.9662 19.7844 22.2499 19 22.25ZM16 3.25C13.7897 3.24954 11.6173 3.82366 9.69585 4.91604C7.7744 6.00843 6.16993 7.58155 5.03985 9.48107C3.90976 11.3806 3.29289 13.5413 3.24974 15.7511C3.2066 17.961 3.73866 20.1441 4.79374 22.0863L3.34124 26.445C3.23841 26.7533 3.22349 27.0842 3.29815 27.4006C3.3728 27.7169 3.53409 28.0062 3.76392 28.2361C3.99376 28.4659 4.28306 28.6272 4.59941 28.7018C4.91576 28.7765 5.24665 28.7616 5.55499 28.6588L9.91374 27.2062C11.62 28.1322 13.5151 28.6563 15.4546 28.7385C17.3942 28.8208 19.3269 28.4591 21.1054 27.681C22.8839 26.903 24.4613 25.729 25.7172 24.2488C26.9732 22.7685 27.8745 21.021 28.3525 19.1395C28.8305 17.258 28.8726 15.2922 28.4755 13.3919C28.0784 11.4917 27.2526 9.70725 26.0611 8.17462C24.8697 6.64199 23.344 5.40167 21.6004 4.54822C19.8567 3.69478 17.9413 3.25075 16 3.25ZM16 27.25C14.0224 27.2505 12.0796 26.7296 10.3675 25.74C10.2534 25.6744 10.1241 25.6395 9.99249 25.6388C9.91179 25.6392 9.83166 25.6523 9.75499 25.6775L5.08124 27.235C5.03719 27.2497 4.98992 27.2518 4.94473 27.2412C4.89954 27.2305 4.85821 27.2075 4.82538 27.1746C4.79254 27.1418 4.7695 27.1005 4.75884 27.0553C4.74817 27.0101 4.7503 26.9628 4.76499 26.9188L6.32249 22.25C6.35619 22.1491 6.36805 22.0422 6.35727 21.9364C6.34649 21.8306 6.31333 21.7283 6.25999 21.6362C5.01906 19.4926 4.52026 16.9994 4.84098 14.5433C5.1617 12.0873 6.284 9.8057 8.03378 8.0526C9.78355 6.2995 12.063 5.17287 14.5184 4.84749C16.9739 4.52211 19.4681 5.01618 21.614 6.25304C23.76 7.4899 25.4378 9.40041 26.3872 11.6882C27.3365 13.9759 27.5043 16.513 26.8645 18.9059C26.2247 21.2987 24.8131 23.4136 22.8487 24.9223C20.8843 26.431 18.4769 27.2492 16 27.25Z" fill="#FDFCFB"/>
</svg>
